<?xml version="1.0" encoding="UTF-8"?>
<svg id="Layer_1" xmlns="http://www.w3.org/2000/svg" version="1.1" viewBox="0 0 2018.45 854.19">
  <!-- Generator: Adobe Illustrator 29.6.1, SVG Export Plug-In . SVG Version: 2.1.1 Build 9)  -->
  <path d="M511.36,583.7l1.11-319.08c3.42-10.51,19.9-15.01,29.82-15.83v-4.2h-63.19l-123.68,278.32-81.58-278.32h-68.8c-.42,2.35.51,2.95,2.44,3.88,4.98,2.4,14.58,3.14,20.77,5.91,11.7,5.23,13.84,12.17,14.76,24.55l-.08,297.71c-2.22,22.08-18.78,22.85-36.5,28.08-2.37,1.08.04,3.52.72,3.52h86.35v-4.2c-12.1-1.32-36.51-7.95-36.51-23.18v-283.62c0-.29,2.36-2.55,2.79-2.1l82.52,277.38,2.08,2.14,8.26.28,130.67-281.2v291.35c0,11.84-21.44,17.96-30.89,18.98v4.19h89.86v-4.2c-12.35-1.76-29.15-5.59-30.92-20.34Z"/>
  <path d="M988.78,520.65c-14.55-72.5,14.96-152.77,94.79-143.84,23.34,2.61,41.93,21.84,51.38,43.77,4.62,10.72,6.45,22.56,11.48,32.53l3.06-1.97v-83.72c-6.42-2.36-7.41,16.4-10.65,17.22-4.99,1.28-19.31-8.79-25.03-11.27-19.77-8.55-40.77-11.23-61.91-8.43-130.43,17.3-116.64,262.56,27.97,242.25,40.43-5.68,69.12-37.68,79.45-78.91l-4.87-1.33c-29.72,84.97-146.33,90.07-165.68-6.31Z"/>
  <path d="M1813.71,529.1c-.53-2.22-4.27-4.08-4.8-2.17-18.36,52.9-69.64,78.97-118.7,57.33-41.71-18.32-53.55-76.27-47.96-119.91.31-2.5,1.19-10.58,3.04-11.24h167.22c.53,0,2.07-2.08,1.76-3.16-4.4-97.1-128.11-114.06-175.02-41.56-26.56,41.09-27.13,105.27-4.62,148.44,32.55,62.39,122.61,69.45,164.36,14.97,11.23-14.66,16.39-35.85,14.72-42.69ZM1790.97,441.25h-143.84c18.32-82.13,132.74-91.1,143.84,0Z"/>
  <path d="M1382.3,527.54c-1.23,1.13-7.31,15.3-9.51,18.84-22.37,35.66-61.17,52.33-100.63,42.69-57.87-14.07-69.63-81.33-60.69-135.97h167.84c4.23-7.18.48-20.36-1.85-28.34-21.4-72.73-119.92-78.87-163.48-26.35-48.14,58.04-34.92,179.65,40.52,204.35,51.62,16.86,111.2-5.62,129.3-63.05.62-1.89,4.4-17.29-1.5-12.19ZM1359,441.25h-143.84c17.53-82.7,131.64-90.58,143.84,0Z"/>
  <path d="M940.15,364.91c-31.41-5.56-55.79,12.3-71.93,37.25l-26.63,62.93v-97.71c-14.42,11.64-30.56,14.66-48.84,13.06,3.85,6.55,11.11,6.76,15.83,15.07,3.21,5.66,5.82,16.17,6.6,22.71,4.18,35.2,3.2,106.84.5,143.08-.75,10.11-3.59,30.66-9.7,38.28-4.49,5.61-12.68,2.61-13.24,8.8h71.65c-.56-6.19-8.74-3.19-13.23-8.8-28.47-35.54.51-192.47,46.78-216.58,39.82-20.74,38,29.31,59.34,10.46,12.48-11.03-3.6-26.17-17.13-28.57Z"/>
  <path d="M1431.86,596.25c-11.6-6.87,36.07-146.7,48.53-184.46,12.46-37.76,32.01-111.48,62.88-137.55,30.87-26.07,35.22-22.54,51.5-16.93,16.28,5.61,21.94-6.93,21.94-6.93,0,0,4.19-9.16-25.91-4.78-88.45,13.61-118.82,105.7-134.28,156.46-14.36,47.15-33.69,121.86-44.99,162.38-2.04,7.3-4.39,15.14-4.27,22.56.38,23.04,17.62,27.47,33.75,18.39,18.11-10.2,33.49-30.9,31.95-32.93-3.74-4.94-27.58,31.81-41.1,23.8Z"/>
  <path d="M1536.01,596.25c-11.6-6.87,36.07-146.7,48.53-184.46,12.46-37.76,32.01-111.48,62.88-137.55,11.16-9.42,19.82-14.84,27.12-17.7,0,0,0,0,0,0,2.35-.71,4.64-1.23,6.82-1.46,16.66-2.27,28.36,6.38,30.79,8.36.29.24.45.38.45.38,10.36,8.31,13.19,24.61,27.44,12.09,13.25-11.62-1.23-27.58-14.32-30.08-4.38-.85-8.62-1.18-12.77-1.04h-.71s-.01,0-.02,0c-4.45-.13-10.06.07-17.28.81-88.45,13.61-118.82,105.7-134.28,156.46-14.36,47.15-33.69,121.86-44.99,162.38-2.04,7.3-4.39,15.14-4.27,22.56.38,23.04,17.62,27.47,33.75,18.39,18.11-10.2,33.49-30.9,31.95-32.93-3.74-4.94-27.58,31.81-41.1,23.8Z"/>
  <path d="M747.2,588.93c-16.52-26.64,7.53-146.12-11.85-190.09-19.86-44.91-122.52-45.06-152.12-10.96v49.12l7.88-26.21c3.77-7.65,9.36-15.8,17.53-22.77,3.36-2.34,54.84-36.92,97.85,5.32,3.31,4.07,6.33,8.82,8.82,14.48l.04.09c.04.19.22.85.48,2.22.4,2.13.97,5.95,1.5,12.37-8.72,1.04-16.96,2.41-24.71,4.06-107.64,22.43-125.74,96.25-128.73,119.77-.66,4.58-.66,7.27-.66,7.27-.26,7.37.92,14.97,3.74,22.81,7.88,21.87,35.76,32.07,64.26,31.88,1.33.06,2.6.03,3.88.03h0c.06,0,.11-.03.17-.03.04,0,.06.02.09.02.03,0,.06-.02.09-.02.07,0,.11.03.17.04.01,0,.02,0,.04,0,0,0,0,0,.01,0,.05,0,.09-.03.14-.03.01,0,.02,0,.03,0,7.14-.98,68.89-11.41,83.05-82.41-.01,2.17-.02,4.35-.03,6.52.01-.08.02-.16.03-.2v49.16c-.09,5.34,1.14,19.74,16.52,24.65h.04c3.26,1.04,7.13,1.65,11.8,1.65h.04c18.25-1.41,22.28-12.7,20.39-21.68-6.78,8.88-13.26,14.64-20.52,2.93ZM718.92,489.33c-.31,3.64-.92,7.89-1.72,12.47-.03.24-.08.48-.11.73-5,27.13-23.02,87-84.97,90.3-10.91-1.32-20.99-5.54-28.89-12.11-3.04-3.35-6.3-6.61-9.16-10.2-3.79-5.67-6.39-12.28-7.4-19.69.09-2.13.18-4.49.18-7.23v-.19c0-27.06,9.91-47.37,24.27-62.62,10.7-11.38,23.87-19.93,37.26-26.35,13.12-6.33,26.47-10.58,37.96-13.41,16.21-4.06,28.71-5.29,31.67-5.53.04,1.09.09,2.22.18,3.35,0,.76.04,1.46.09,2.13.09,2.83.22,5.86.31,8.93.4,12.89.66,27.44.35,39.44Z"/>
</svg>