<?xml version="1.0" encoding="UTF-8"?>
<svg id="Layer_1" xmlns="http://www.w3.org/2000/svg" version="1.1" viewBox="0 0 1108.02 1080">
  <!-- Generator: Adobe Illustrator 29.6.1, SVG Export Plug-In . SVG Version: 2.1.1 Build 9)  -->
  <defs>
    <style>
      .st0 {
        fill: #002147;
      }
    </style>
  </defs>
  <path class="st0" d="M178.49,800.53c2.25-10.75,12.52-50.46,24.72-96.66,15.96-60.24,37.86-142.78,55.67-215.13,34.25-138.61,66.74-179.99,116.23-231.73,49.65-51.98,132.27-84.38,215.53-84.54,5.37-.08,11.23.24,16.28,2.41,2.25.96,9.55,4.49,10.99,10.19.72,2.97-.32,6.26-3.13,9.71-11.31,13.08-23.66,11.39-44.2,8.58-18.85-2.57-44.68-6.02-80.13,2.17-76.12,17.73-123.77,102.11-141.41,168.93-3.45,13.15-6.9,26.79-10.19,40.75-14.52,60.4-32.32,121.44-49.57,180.55-7.7,26.39-15.32,52.78-22.78,79.09-22.22,79.17-34.25,122.56-35.61,129.22-.24,1.44-.64,3.13-1.04,5.05-3.93,17.57-11.15,50.29,1.12,65.61,4.25,5.29,10.43,8.02,18.37,8.02h.16c37.7,0,72.03-25.75,102.03-76.44,2.01-3.45,4.17-4.25,5.45-3.85.72.24,1.2.8,1.2,1.44-2.01,40.03-40.75,99.86-105.4,103.47-31.76,1.76-54.38-5.86-67.3-22.54-23.18-29.76-8.65-77.07-8.02-79.84l1.03-4.46Z"/>
  <path class="st0" d="M422.37,800.7c2.25-10.83,12.49-50.71,24.68-96.91,15.96-60.24,37.86-142.78,55.67-215.05,33.93-137.48,63.21-182.56,116.15-231.65,54.62-50.77,145.82-84.7,227.48-84.7h1.6c.64.08,60.88-.96,82.46,33.61,6.58,10.67,5.78,23.34-2.09,32.24-7.86,8.98-20.29,11.39-31.92,6.1l-.96-.48c-6.74-3.21-13.24-7.7-19.17-13.24-48.37-45.24-136.6-27.75-141.97-25.11-76.12,17.73-123.77,102.11-141.41,168.93-3.45,13.15-6.9,26.79-10.27,40.75-14.44,60.48-32.33,121.6-49.57,180.8-7.7,26.39-15.4,52.78-22.78,79.09-22.22,79.01-34.17,122.4-35.53,128.98-.32,1.44-.64,3.13-1.12,4.97-3.77,17.17-10.83,49.17.48,64.81,3.77,5.13,9.14,8.1,15.96,8.74,1.68.16,3.45.16,5.13.08,12.35-.8,16.36-1.36,34.01-9.62,9.06-4.25,40.51-19.97,65.85-43.07l1.28-1.2-.64-1.6c-7.06-16.68-10.75-33.45-13.15-46.2-7.46-39.54,6.74-101.71,30.96-135.64,11.39-15.88,23.9-24.95,37.22-26.87,17.33-1.84,27.35,4.97,32.73,10.91,7.46,8.18,9.38,18.69,7.94,25.43-1.36,6.66-5.7,11.39-11.31,12.43-5.45.96-10.91-1.92-14.6-7.7-4.01-6.42-10.19-9.22-16.92-7.7-15.08,3.53-34.89,30.24-41.15,93.69-2.17,21.74-.32,41.47,5.53,58.55l1.6,4.57,2.81-3.85c22.22-30,31.77-51.03,37.38-66.59,1.28-3.45,4.89-5.21,8.5-4.09,3.77,1.2,6.1,5.54,5.21,9.47-8.42,36.82-19.9,59.29-40.35,85.92l-1.2,1.52,1.2,1.52c22.7,29.68,61.68,46.52,116.07,50.21,90.72,6.1,134.43-52.77,141.73-91.68,6.02-32.72,11.55-40.43,11.79-40.75l.16-.24c7.54-11.79,16.52-17.33,24.54-15.16,8.18,2.17,13.88,11.87,14.52,24.79.64,12.27-9.22,54.06-42.43,89.03-25.43,26.71-72.43,58.63-151.44,58.63-63.05,0-106.36-17.57-132.59-53.74l-1.68-2.33-2.09,2.01c-24.22,23.02-52.78,39.46-85.02,48.85-.96.32-1.68.48-2.57.8-6.58,2.09-15,3.77-22.46,4.41-31.68,1.76-54.38-5.86-67.38-22.54-23.1-29.76-8.75-76.25-7.93-79.86l1.06-4.26Z"/>
</svg>